<?xml version="1.0" encoding="iso-8859-1"?>
<!-- Uploaded to: SVG Repo, www.svgrepo.com, Generator: SVG Repo Mixer Tools -->
<!DOCTYPE svg PUBLIC "-//W3C//DTD SVG 1.1//EN" "http://www.w3.org/Graphics/SVG/1.1/DTD/svg11.dtd">
<svg fill="#000000" height="800px" width="800px" version="1.1" id="Capa_1" xmlns="http://www.w3.org/2000/svg" xmlns:xlink="http://www.w3.org/1999/xlink" 
	 viewBox="0 0 457.582 457.582" xml:space="preserve">
<g>
	<path d="M11.796,306.42h237.037c1.668,0,3.26-0.711,4.381-1.947s1.67-2.887,1.51-4.548c-4.563-47.249-58.519-84.545-124.41-84.545
		S10.467,252.677,5.905,299.926c-0.161,1.662,0.385,3.315,1.507,4.552C8.533,305.715,10.126,306.42,11.796,306.42z"/>
	<path d="M248.832,364.24H11.796c-1.67,0-3.262,0.706-4.384,1.942c-1.122,1.237-1.667,2.891-1.507,4.553
		c1.243,12.86,6.148,24.982,13.955,35.816c5.03,6.979,13.114,11.109,21.718,11.109H219.05c8.59,0,16.695-4.14,21.717-11.109
		c7.807-10.834,12.712-22.956,13.955-35.816c0.16-1.661-0.388-3.312-1.51-4.548S250.501,364.24,248.832,364.24z"/>
	<path d="M245.744,320.604H14.884C6.664,320.604,0,327.267,0,335.487c0,8.22,6.664,14.883,14.884,14.883h230.86
		c8.22,0,14.883-6.664,14.883-14.883C260.627,327.267,253.963,320.604,245.744,320.604z"/>
	<path d="M442.698,172.329c-2.108,0-3.332-2.311-2.22-4.102c1.378-2.222,2.188-4.833,2.219-7.634
		c0.094-8.281-7.035-15.055-15.317-15.055h-63.196l4.921-68.878l52.885,22.49c7.782,3.31,16.813-0.519,19.787-8.542
		c2.786-7.514-1.15-15.879-8.524-19.016L361.57,41.109c-4.425-1.881-9.486-1.51-13.587,0.998c-4.103,2.508-6.74,6.842-7.083,11.638
		l-6.558,91.794h-63.777c-8.281,0-15.41,6.774-15.317,15.055c0.032,2.801,0.841,5.412,2.219,7.634
		c1.111,1.791-0.113,4.102-2.22,4.102c-8.22,0-14.883,6.664-14.883,14.884c0,7.101,4.813,14.515,11.629,14.515
		c56.444,0,138.568,0,193.96,0c6.816,0,11.629-7.415,11.629-14.515C457.582,178.992,450.918,172.329,442.698,172.329z"/>
	<path d="M284.99,405.52c0.817,6.924,6.686,12.141,13.657,12.141h100.65c6.972,0,12.841-5.217,13.658-12.141l22.375-189.609H262.615
		L284.99,405.52z"/>
</g>
</svg>